Coordinates
version=1
nRows=21
nColumns=22
inDegrees=yes

Units are S.I. units (second, meters, Newtons, ...)
If the header above contains a line with 'inDegrees', this indicates whether rotational values are in degrees (yes) or radians (no).

endheader
time	pelvis_tilt	pelvis_list	pelvis_rotation	pelvis_tx	pelvis_ty	pelvis_tz	hip_flexion_r	hip_adduction_r	hip_rotation_r	knee_angle_r	ankle_angle_r	subtalar_angle_r	hip_flexion_l	hip_adduction_l	hip_rotation_l	knee_angle_l	ankle_angle_l	subtalar_angle_l	lumbar_extension	lumbar_bending	lumbar_rotation
      1.34000000	      1.83840826	     -0.48390569	      1.03102992	     -0.58230053	      1.07985712	      1.19130613	     -2.44632705	      2.91395068	     -4.59241182	    -14.73919784	     16.35546555	     -2.97531122	     -0.19062894	     -0.77458684	      3.64217638	    -18.12533311	     16.17572515	     -1.27796440	     -1.75435403	     -1.73084848	     -4.37713132
      1.35000000	      1.82664426	     -0.65390852	      1.01597845	     -0.58198289	      1.07946720	      1.19272535	     -2.46519079	      3.18258805	     -4.47932163	    -14.71882518	     16.41103384	     -3.00060890	      0.36985287	     -0.97920005	      3.72389218	    -19.18175047	     16.35823638	     -1.14738063	     -1.83921302	     -1.55980769	     -4.22544524
      1.36000000	      1.81535000	     -0.82673418	      1.00391969	     -0.58168682	      1.07907301	      1.19413307	     -2.48389505	      3.45410708	     -4.36943926	    -14.69881526	     16.46274520	     -3.02708287	      0.97755148	     -1.18005549	      3.81792303	    -20.32397883	     16.50547162	     -0.99811729	     -1.93942338	     -1.38098798	     -4.06859309
      1.37000000	      1.81133810	     -0.99907018	      0.99428543	     -0.58143637	      1.07869395	      1.19553032	     -2.50631263	      3.72489137	     -4.26228033	    -14.68267370	     16.50015421	     -3.05296199	      1.62687165	     -1.37193330	      3.93473167	    -21.55367240	     16.60936517	     -0.83628302	     -2.07106949	     -1.19868396	     -3.90661783
      1.38000000	      1.82989560	     -1.17146982	      0.99107480	     -0.58120543	      1.07835201	      1.19689288	     -2.55096916	      3.99402208	     -4.17429447	    -14.66909985	     16.54759352	     -3.07706798	      2.30399994	     -1.55447272	      4.06898697	    -22.87582417	     16.64579994	     -0.67704453	     -2.24428803	     -1.01125119	     -3.73466405
      1.39000000	      1.76984037	     -1.30431016	      0.99286371	     -0.58102234	      1.07791312	      1.19823347	     -2.50480183	      4.21776380	     -4.10342945	    -14.66460989	     16.62681717	     -3.12077256	      3.13494579	     -1.68513184	      4.20772786	    -24.31627386	     16.57780932	     -0.38480100	     -2.34378432	     -0.87261217	     -3.56649298
      1.40000000	      1.75230284	     -1.44478769	      1.00813379	     -0.58086721	      1.07755249	      1.19952758	     -2.50345046	      4.45010358	     -4.04535850	    -14.65894998	     16.67924268	     -3.15769595	      3.97585715	     -1.81001501	      4.38817914	    -25.85044519	     16.43498662	     -0.12699484	     -2.51417631	     -0.71892139	     -3.39981145
      1.41000000	      1.77008522	     -1.58570682	      1.04047075	     -0.58071060	      1.07726803	      1.20075923	     -2.54562447	      4.68199109	     -4.00282185	    -14.64078769	     16.69694668	     -3.18543633	      4.83436638	     -1.91976033	      4.60968130	    -27.47632099	     16.18356741	      0.09316365	     -2.74044270	     -0.55958407	     -3.24845083
      1.42000000	      1.72016690	     -1.68035170	      1.08191389	     -0.58055640	      1.07690240	      1.20193739	     -2.50496912	      4.85838126	     -4.00057511	    -14.64400246	     16.78555662	     -3.22927923	      5.82677290	     -1.96525807	      4.83737363	    -29.19722409	     15.81582906	      0.41947746	     -2.90084011	     -0.45649504	     -3.09257980
      1.43000000	      1.70503616	     -1.77934512	      1.14466210	     -0.58037807	      1.07661923	      1.20304491	     -2.51108728	      5.03861889	     -4.01903659	    -14.62874576	     16.82693598	     -3.25964640	      6.82774528	     -1.99810184	      5.10008665	    -30.98128109	     15.34283257	      0.70765560	     -3.11632557	     -0.34375698	     -2.95588208
      1.44000000	      1.68397270	     -1.86343617	      1.21909635	     -0.58015904	      1.07635343	      1.20408631	     -2.51413051	      5.19878350	     -4.06421183	    -14.61056187	     16.86538232	     -3.28138775	      7.87471424	     -1.99926806	      5.36942941	    -32.81169692	     14.76171286	      1.00515096	     -3.33398493	     -0.24690091	     -2.81788315
      1.45000000	      1.65762881	     -1.93793665	      1.30357386	     -0.57988360	      1.07610199	      1.20506516	     -2.51810170	      5.34465008	     -4.13426433	    -14.58432168	     16.89965336	     -3.29008432	      8.95745666	     -1.97920001	      5.62430910	    -34.66362753	     14.09825702	      1.30223230	     -3.55311430	     -0.15905399	     -2.68030196
      1.46000000	      1.63002725	     -2.00432896	      1.39109634	     -0.57953860	      1.07587185	      1.20599562	     -2.53278710	      5.47756219	     -4.22513228	    -14.54085072	     16.92818639	     -3.28145960	     10.05826720	     -1.94594376	      5.84370467	    -36.50267551	     13.37786746	      1.58180647	     -3.77698964	     -0.08098974	     -2.53204934
      1.47000000	      1.60335776	     -2.06300637	      1.47553292	     -0.57912935	      1.07566932	      1.20688859	     -2.55584919	      5.59841951	     -4.31755487	    -14.48960931	     16.93402403	     -3.25324416	     11.16321970	     -1.90674172	      6.01014770	    -38.29505069	     12.62753922	      1.82890618	     -4.00913240	     -0.01129686	     -2.38334119
      1.48000000	      1.54884624	     -2.11190876	      1.54472138	     -0.57860728	      1.07544452	      1.20777468	     -2.56862394	      5.70337759	     -4.43114254	    -14.41142108	     16.98049193	     -3.20489612	     12.28998257	     -1.87318880	      6.08668664	    -40.00743580	     11.90878762	      2.05304287	     -4.20909048	      0.03989821	     -2.18556267
      1.49000000	      1.49891370	     -2.14952373	      1.60498240	     -0.57800489	      1.07525710	      1.20863369	     -2.59384293	      5.79340551	     -4.52785747	    -14.32973078	     17.01567794	     -3.13722507	     13.39541894	     -1.84502280	      6.08408535	    -41.60381457	     11.24923434	      2.20546966	     -4.42042038	      0.07742212	     -1.98142685
      1.50000000	      1.44078626	     -2.17485327	      1.66004301	     -0.57726834	      1.07509503	      1.20948385	     -2.63546163	      5.86950667	     -4.62373907	    -14.21485740	     17.04263850	     -3.05276405	     14.48346843	     -1.83238525	      5.98270147	    -43.05191659	     10.70489202	      2.25656370	     -4.61925988	      0.09403565	     -1.77080842
      1.51000000	      1.37838977	     -2.18452596	      1.71148398	     -0.57638717	      1.07497627	      1.21032009	     -2.70322383	      5.92986573	     -4.69910647	    -14.05781886	     17.04748227	     -2.95717645	     15.54105329	     -1.83130214	      5.79508502	    -44.32345807	     10.29355298	      2.19352867	     -4.81045188	      0.08605408	     -1.55099151
      1.52000000	      1.30498886	     -2.17869187	      1.75767272	     -0.57536415	      1.07486514	      1.21114455	     -2.77159159	      5.97266041	     -4.77389119	    -13.89554132	     17.07571473	     -2.85151802	     16.57602266	     -1.84608403	      5.51125894	    -45.41052685	     10.05269316	      2.00843003	     -4.98385756	      0.05464568	     -1.32963145
      1.53000000	      1.21871968	     -2.15131537	      1.80207994	     -0.57418827	      1.07476336	      1.21195679	     -2.83960915	      5.99131479	     -4.85356164	    -13.72698402	     17.10512681	     -2.73371695	     17.58406721	     -1.86874014	      5.14053530	    -46.29833594	      9.97035471	      1.68700354	     -5.13704741	     -0.00798259	     -1.13007310
      1.54000000	      1.14186540	     -2.11190825	      1.83875831	     -0.57282655	      1.07471706	      1.21276553	     -2.95722582	      6.00114186	     -4.89590239	    -13.50341649	     17.11594032	     -2.61838651	     18.52940461	     -1.90484165	      4.70425749	    -46.97085557	      9.98966090	      1.31709040	     -5.29172889	     -0.09110430	     -0.90777752
